<?xml version="1.0" encoding="utf-8"?>
<!-- Generator: Adobe Illustrator 27.8.0, SVG Export Plug-In . SVG Version: 6.00 Build 0)  -->
<svg version="1.1" id="Calque_1" xmlns="http://www.w3.org/2000/svg" xmlns:xlink="http://www.w3.org/1999/xlink" x="0px" y="0px"
	 viewBox="0 0 15 15" style="enable-background:new 0 0 15 15;" xml:space="preserve">
<style type="text/css">
	.st0{fill:#212121;}
</style>
<g>
	<path class="st0" d="M7.5,0C3.4,0,0,3.4,0,7.5S3.4,15,7.5,15S15,11.6,15,7.5S11.6,0,7.5,0z M7.5,14.1c-3.6,0-6.6-3-6.6-6.6
		s3-6.6,6.6-6.6s6.6,3,6.6,6.6S11.1,14.1,7.5,14.1z"/>
</g>
<path class="st0" d="M8.4,10.3c-0.1,0.2-0.3,0.4-0.5,0.6C7.8,11,7.5,11,7.5,10.8l1.8-5.1h-3L6,6.6h1.2L6,10.1l-0.3,0.8
	c-0.1,0.3-0.1,0.5,0,0.8c0.3,0.5,0.9,0.5,1,0.5s0.4,0,0.8-0.2c0.7-0.4,1.2-1,1.4-1.4"/>
<circle class="st0" cx="8.5" cy="3.8" r="1"/>
</svg>
